<?xml version="1.0" encoding="utf-8"?>
<!-- Generator: Adobe Illustrator 18.0.0, SVG Export Plug-In . SVG Version: 6.00 Build 0)  -->
<!DOCTYPE svg PUBLIC "-//W3C//DTD SVG 1.1//EN" "http://www.w3.org/Graphics/SVG/1.1/DTD/svg11.dtd">
<svg version="1.1" id="Layer_1" xmlns="http://www.w3.org/2000/svg" xmlns:xlink="http://www.w3.org/1999/xlink" x="0px" y="0px"
	 viewBox="0 0 22.5 20.6" enable-background="new 0 0 22.5 20.6" xml:space="preserve">
<path fill="#FFFFFF" d="M21.6,3.8H4L3.7,0.8C3.7,0.4,3.3,0,2.8,0H0.9C0.4,0,0,0.4,0,0.9c0,0.5,0.4,0.9,0.9,0.9h1L3,13.7
	c0.1,0.9,0.6,1.8,1.3,2.4c-1,1.2-0.7,3,0.5,3.9s3,0.7,3.9-0.5c0.6-0.8,0.8-1.8,0.4-2.7h5.1c-0.5,1.5,0.2,3.1,1.7,3.6
	c1.5,0.5,3.1-0.2,3.6-1.7c0.5-1.5-0.2-3.1-1.7-3.6c-0.3-0.1-0.6-0.2-1-0.2H6.6c-0.7,0-1.3-0.4-1.6-1l14.8-0.9c0.4,0,0.7-0.3,0.8-0.7
	l1.9-7.5c0.1-0.5-0.2-1-0.7-1.1C21.7,3.8,21.6,3.8,21.6,3.8z M6.6,18.8c-0.5,0-1-0.4-1-1c0-0.5,0.4-1,1-1s1,0.4,1,1l0,0
	C7.5,18.3,7.1,18.8,6.6,18.8z M16.9,18.8c-0.5,0-1-0.4-1-1c0-0.5,0.4-1,1-1c0.5,0,1,0.4,1,1l0,0C17.8,18.3,17.4,18.8,16.9,18.8z
	 M19,11.3L4.7,12.1L4.1,5.6h16.2L19,11.3z"/>
</svg>
