<svg xmlns="http://www.w3.org/2000/svg" width="33" height="33" viewBox="0 0 33 33"><defs><style>.a{fill:#fff;stroke:#27b5f3;stroke-width:2px;}.b{fill:#27b5f3;}.c{stroke:none;}.d{fill:none;}</style></defs><g transform="translate(-361 -1262)"><g class="a" transform="translate(361 1262)"><circle class="c" cx="16.5" cy="16.5" r="16.5"/><circle class="d" cx="16.5" cy="16.5" r="15.5"/></g><path class="b" d="M4.852-17.725a5.475,5.475,0,0,1,3.636,1.276,3.988,3.988,0,0,1,1.522,3.182,3.991,3.991,0,0,1-.485,1.948A6.267,6.267,0,0,1,8.347-9.773q-.693.66-1.969,1.667A7.222,7.222,0,0,0,4.626-6.292,2.956,2.956,0,0,0,4.15-4.814q0,1.075-.623,1.075a.456.456,0,0,1-.452-.25,3.191,3.191,0,0,1-.122-1.129A3.838,3.838,0,0,1,3.424-6.9a9.45,9.45,0,0,1,1.9-2.245,7.681,7.681,0,0,0,1.862-2.361,5.136,5.136,0,0,0,.4-1.959,3.344,3.344,0,0,0-.731-2.117,2.326,2.326,0,0,0-1.925-.934,3.246,3.246,0,0,0-2.284.767,2.544,2.544,0,0,0-.834,1.96,2.1,2.1,0,0,0,.29,1.126.859.859,0,0,0,.748.469.77.77,0,0,0,.265-.043.7.7,0,0,1,.24-.043.969.969,0,0,1,.573.212.606.606,0,0,1,.289.491.881.881,0,0,1-.453.782,1.983,1.983,0,0,1-1.078.285,2.045,2.045,0,0,1-1.592-.8A3.432,3.432,0,0,1,.4-13.606a3.965,3.965,0,0,1,1.216-2.9A4.365,4.365,0,0,1,4.852-17.725ZM3.827-2.307a1.33,1.33,0,0,1,.9.364,1.264,1.264,0,0,1,.411,1,1.092,1.092,0,0,1-.391.838,1.323,1.323,0,0,1-.916.352,1.347,1.347,0,0,1-.942-.383,1.2,1.2,0,0,1-.413-.905,1.17,1.17,0,0,1,.4-.9A1.36,1.36,0,0,1,3.827-2.307Z" transform="translate(373 1288)"/></g></svg>