<svg xmlns="http://www.w3.org/2000/svg" width="208" height="203" viewBox="0 0 208 203"><defs><style>.a{fill:#fafeff;}.b{fill:#27b5f3;}.c{fill:#0265cb;}.d{fill:#405b6c;}.e{fill:#86dcff;}.f{fill:#2d4456;}.g{fill:#20a4de;}.h{fill:#219de1;}</style></defs><g transform="translate(-1405 -1032)"><path class="a" d="M101.5,0h5a101.5,101.5,0,0,1,0,203h-5a101.5,101.5,0,0,1,0-203Z" transform="translate(1405 1032)"/><g transform="translate(1450.11 1075.392)"><path class="b" d="M59.18,115.608a67.388,67.388,0,0,1-22.287-3.753A60.662,60.662,0,0,1,18,101.279,50.506,50.506,0,0,1,4.9,84.908,47.1,47.1,0,0,1,0,63.768a55.109,55.109,0,0,1,1.259-11.54A64.317,64.317,0,0,1,4.84,40.908a71.568,71.568,0,0,1,5.608-10.7,74.009,74.009,0,0,1,7.34-9.68,70.616,70.616,0,0,1,8.778-8.26,62.8,62.8,0,0,1,9.922-6.441A49.214,49.214,0,0,1,58.583,0l-.744,25.77C36.5,26.8,22.709,39.1,22.709,57.116c0,19.089,16.282,34.618,36.3,34.618,12.939,0,34.727-4.021,35.271-30.948.022-1.085.007-2.162-.043-3.2l23.071-.632c.092,1.282.139,2.571.139,3.833a51.181,51.181,0,0,1-4.757,21.63A54.8,54.8,0,0,1,99.9,99.809,59.579,59.579,0,0,1,81.324,111.4,60.215,60.215,0,0,1,59.18,115.608Z" transform="translate(0 0)"/><g transform="translate(1.282 0)"><g transform="translate(0)"><path class="c" d="M19.246.44C30.89,2.722,38.029,7.218,38.029,16.054S29.2,31.668,18.5,31.668,0,22.712,0,13.892,7.6-1.842,19.246.44Z" transform="matrix(0.998, 0.07, -0.07, 0.998, 39.945, 42.528)"/><path class="d" d="M288.43,177.591a3.474,3.474,0,0,0-4.913.034l-8.153,8.266.819,3.935,3.808,1.269,8.472-8.59A3.475,3.475,0,0,0,288.43,177.591Z" transform="translate(-213.578 -136.966)"/><path class="d" d="M150.17,159.448l-18.489-16.477a3.474,3.474,0,1,0-4.623,5.188l18.854,16.8,3.929-1.31Z" transform="translate(-97.647 -110.208)"/><path class="e" d="M283.567,279.933a1.73,1.73,0,0,1-1.117-.407l-22.006-18.484a1.737,1.737,0,0,1,2.235-2.66l22.006,18.484a1.737,1.737,0,0,1-1.118,3.067Z" transform="translate(-201.525 -200.09)"/><path class="f" d="M215.1,224.959l3.245,2.891,4.167-1.416-.226-4.38-2.927-2.608A9.582,9.582,0,0,0,215.1,224.959Z" transform="translate(-166.838 -170.207)"/><path class="f" d="M265.828,218.038l-2.759,2.8v5.49h4.345l3.041-3.083A9.593,9.593,0,0,0,265.828,218.038Z" transform="translate(-204.041 -169.115)"/><path class="b" d="M242.127,233.391a5.94,5.94,0,0,0-11.122,0,5.573,5.573,0,1,0,11.122,0Z" transform="translate(-179.125 -178.035)"/><path class="g" d="M235.476,250.563a5.939,5.939,0,0,1-5.56-3.853,5.937,5.937,0,1,0,11.12,0A5.938,5.938,0,0,1,235.476,250.563Z" transform="translate(-178.035 -191.353)"/></g><g transform="translate(7.275 7.275)"><path class="h" d="M418.88,252.25a2,2,0,0,0,0-4.007h-6.206a2,2,0,1,0,0,4.007Z" transform="translate(-390.354 -24.919) rotate(-25)"/><path class="h" d="M418.88,252.25a2,2,0,0,0,0-4.007h-6.206a2,2,0,1,0,0,4.007Z" transform="translate(-345.217 250.491) rotate(-61)"/></g></g></g></g></svg>