<svg xmlns="http://www.w3.org/2000/svg" width="149.401" height="147.085" viewBox="0 0 149.401 147.085"><defs><style>.a{fill:#27b5f3;}.b{fill:#0265cb;}</style></defs><path class="a" d="M75.284,147.085a85.716,85.716,0,0,1-28.352-4.775A77.165,77.165,0,0,1,22.9,128.855,64.257,64.257,0,0,1,6.233,108.027,59.928,59.928,0,0,1,0,81.13,70.164,70.164,0,0,1,1.622,66.353a81.942,81.942,0,0,1,4.611-14.49,91.159,91.159,0,0,1,7.219-13.685A94.129,94.129,0,0,1,22.9,25.818,89.6,89.6,0,0,1,34.184,15.3,79.465,79.465,0,0,1,46.932,7.146,62.182,62.182,0,0,1,75.284,0a65.349,65.349,0,0,1,28.169,6.543,76.742,76.742,0,0,1,12.561,7.538,83,83,0,0,1,11.073,9.812C141.268,38.9,149.4,58.381,149.4,77.336a65.124,65.124,0,0,1-6.051,27.519,69.723,69.723,0,0,1-16.261,22.129,75.79,75.79,0,0,1-23.634,14.742A76.591,76.591,0,0,1,75.284,147.085ZM76.667,32.712c-.531,0-1.072.008-1.607.022-28.049.779-46.173,16.454-46.173,39.933,0,24.286,20.713,44.044,46.173,44.044,16.46,0,44.176-5.115,44.869-39.375.267-13.222-3.723-24.426-11.538-32.4C100.667,37.053,89.4,32.712,76.667,32.712Z" transform="translate(0 0)"/><path class="b" d="M25.7.587c15.545,3.047,25.077,9.05,25.077,20.846S38.991,42.28,24.706,42.28,0,30.323,0,18.547,10.151-2.46,25.7.587Z" transform="translate(49.217 53.29)"/></svg>