<svg xmlns="http://www.w3.org/2000/svg" width="21" height="21" viewBox="0 0 21 21"><defs><style>.a{fill:#fff;stroke:#27b5f3;}.b{fill:#27b5f3;}.c{stroke:none;}.d{fill:none;}</style></defs><g class="a"><circle class="c" cx="10.5" cy="10.5" r="10.5"/><circle class="d" cx="10.5" cy="10.5" r="10"/></g><path class="b" d="M3.318-17.725a3.587,3.587,0,0,1,2.383.836,2.613,2.613,0,0,1,1,2.085,2.615,2.615,0,0,1-.318,1.277,4.107,4.107,0,0,1-.772,1.012q-.454.432-1.29,1.092A4.732,4.732,0,0,0,3.17-10.234a1.937,1.937,0,0,0-.312.968q0,.7-.408.7a.3.3,0,0,1-.3-.164,2.091,2.091,0,0,1-.08-.74,2.515,2.515,0,0,1,.308-1.167A6.192,6.192,0,0,1,3.626-12.1a5.033,5.033,0,0,0,1.22-1.547,3.365,3.365,0,0,0,.26-1.283,2.191,2.191,0,0,0-.479-1.387,1.524,1.524,0,0,0-1.261-.612,2.127,2.127,0,0,0-1.5.5,1.667,1.667,0,0,0-.547,1.284,1.376,1.376,0,0,0,.19.738A.563.563,0,0,0,2-14.1a.5.5,0,0,0,.174-.028.456.456,0,0,1,.157-.028.635.635,0,0,1,.375.139.4.4,0,0,1,.19.322.577.577,0,0,1-.3.512A1.3,1.3,0,0,1,1.9-13a1.34,1.34,0,0,1-1.043-.527,2.249,2.249,0,0,1-.449-1.5,2.6,2.6,0,0,1,.8-1.9A2.86,2.86,0,0,1,3.318-17.725Zm-.672,10.1a.871.871,0,0,1,.591.239.828.828,0,0,1,.269.653.716.716,0,0,1-.256.549.867.867,0,0,1-.6.231A.883.883,0,0,1,2.033-6.2a.783.783,0,0,1-.27-.593.767.767,0,0,1,.261-.589A.891.891,0,0,1,2.646-7.623Z" transform="translate(7.413 22.836)"/></svg>