<svg xmlns="http://www.w3.org/2000/svg" width="208" height="203" viewBox="0 0 208 203"><defs><style>.a{fill:#fafeff;}.b{fill:#27b5f3;}.c{fill:#0265cb;stroke:#fff;stroke-width:12px;}</style></defs><g transform="translate(-301 -1032)"><rect class="a" width="208" height="203" rx="101.5" transform="translate(301 1032)"/><g transform="translate(25.213 2287.461)"><path class="b" d="M87.19,148.779a129.918,129.918,0,0,1-21.411-1.8A123.3,123.3,0,0,1,45.153,141.7c-13.776-4.866-25.181-11.919-32.98-20.4A46.8,46.8,0,0,1,2.6,106.055,41.835,41.835,0,0,1,.156,87.786a70.777,70.777,0,0,1,2.9-14.6A98.94,98.94,0,0,1,9.078,58.152a125.8,125.8,0,0,1,19.5-28.408A117.576,117.576,0,0,1,41.107,17.828,95.463,95.463,0,0,1,54.848,8.411,71.082,71.082,0,0,1,69.327,2.224,52.271,52.271,0,0,1,84.068,0c1.044,0,2.094.036,3.122.107a83.609,83.609,0,0,1,22.124,5.028,141.438,141.438,0,0,1,23.6,11.17,158.045,158.045,0,0,1,22.2,15.683,119.865,119.865,0,0,1,17.924,18.567A67.231,67.231,0,0,1,183.457,69.3a35.3,35.3,0,0,1,1.6,18.488A57.307,57.307,0,0,1,172.643,113a86.282,86.282,0,0,1-23.208,19.224,120.37,120.37,0,0,1-29.863,12.255A126.363,126.363,0,0,1,87.19,148.779ZM81,42.979c-.711,0-1.42.01-2.108.029-7.8.217-16.094,5.226-22.757,13.743-6.813,8.709-10.209,18.942-8.65,26.069.148.676.291,1.347.428,2,1.4,6.582,2.605,12.266,7.784,16.317,5.633,4.406,15.674,6.458,31.6,6.458s28.119-4.711,35.249-13.624c5.952-7.441,8.154-17.892,5.889-27.957-1.708-7.591-8.094-13.779-18.468-17.9A81.7,81.7,0,0,0,81,42.979Z" transform="translate(286.708 -1228.573)"/><path class="c" d="M63.85-1.075C103.737,5.752,128.2,19.2,128.2,45.634S97.963,92.343,61.309,92.343-2.083,65.551-2.083,39.167,23.962-7.9,63.85-1.075Z" transform="translate(316.591 -1191.804)"/></g></g></svg>