<svg xmlns="http://www.w3.org/2000/svg" width="208" height="203" viewBox="0 0 208 203"><defs><style>.a{fill:#fafeff;}.b{fill:#27b5f3;}.c{fill:#0265cb;}.d{fill:#0757aa;}.e{fill:#1ca5e1;}.f{fill:#1a9ad2;}.g{fill:#107eae;}</style></defs><g transform="translate(-853 -1032)"><rect class="a" width="208" height="203" rx="101.5" transform="translate(853 1032)"/><g transform="matrix(0.998, 0.07, -0.07, 0.998, 879.751, 1096.052)"><path class="b" d="M56.389,93.37a74.725,74.725,0,0,1-21.236-3.031,61.324,61.324,0,0,1-18-8.541A42.792,42.792,0,0,1,4.669,68.576,33.365,33.365,0,0,1,0,51.5a38.052,38.052,0,0,1,1.215-9.38,46.515,46.515,0,0,1,3.454-9.2,55.469,55.469,0,0,1,5.407-8.687,62.016,62.016,0,0,1,7.074-7.846A64.152,64.152,0,0,1,25.6,9.713a61.777,61.777,0,0,1,9.549-5.176A53.4,53.4,0,0,1,56.389,0a56.336,56.336,0,0,1,21.1,4.154,60.33,60.33,0,0,1,17.7,11.014C105.811,24.7,111.9,37.061,111.9,49.093a36.136,36.136,0,0,1-4.532,17.469A45.519,45.519,0,0,1,95.19,80.61a59.119,59.119,0,0,1-17.7,9.358A66.534,66.534,0,0,1,56.389,93.37Zm1.036-72.6c-.4,0-.8,0-1.2.014-21.009.495-34.584,10.445-34.584,25.349,0,15.417,15.514,27.959,34.584,27.959,12.329,0,33.089-3.247,33.607-25,.2-8.393-2.789-15.505-8.642-20.568C75.4,23.521,66.962,20.766,57.425,20.766Z" transform="translate(0 0)"/><path class="c" d="M19.246.44C30.89,2.722,38.029,7.218,38.029,16.054S29.2,31.668,18.5,31.668,0,22.712,0,13.892,7.6-1.842,19.246.44Z" transform="translate(36.864 31.373)"/></g><g transform="translate(931.761 1072.107) rotate(-8)"><path class="c" d="M29.529,3.959,14.045,19.443v4.679H9.364L0,33.488,15.563,49.05l9.365-9.364V35h4.68L45.091,19.518a7.292,7.292,0,0,1,10.311,0l1.956,1.956,4.4-4.4-7.11-7.11-6-6a13.514,13.514,0,0,0-19.116,0Zm0,0"/><path class="d" d="M44.463,0l1.744,1.737-4.4,4.4L39.85,4.182a7.292,7.292,0,0,0-10.311,0L14.045,19.666H9.365v4.681L0,33.712,3.638,37.35,13,27.986V23.3h4.68L33.169,7.819a7.292,7.292,0,0,1,10.311,0l1.956,1.956,4.4-4.4Zm0,0" transform="translate(11.922 11.699)"/><path class="d" d="M3.32,3.32H0l8.241,8.241,3.32-3.321L3.32,0Zm0,0" transform="translate(10.725 20.803)"/><path class="b" d="M0,9.52,9.52,0l4.474,4.474-9.52,9.52Zm0,0" transform="translate(13.52 1.5)"/><path class="e" d="M0,9.52,9.52,0l2.032,2.032-9.52,9.52Zm0,0" transform="translate(15.962 3.942)"/><path class="b" d="M0,9.519,39.383,48.9a18.163,18.163,0,0,1,3.984,6.011l1.684,4.16a8.278,8.278,0,0,0,12.879,3.438c.11-.094,2.776-2.747,4.8-4.765a3.192,3.192,0,0,0,0-4.52L51.5,41.991,9.52,0Zm0,0" transform="translate(33.553 21.535)"/><path class="e" d="M0,9.52,9.52,0l3.454,3.455-9.52,9.52Zm0,0" transform="translate(33.553 21.533)"/><path class="f" d="M7.206,21.221a8.278,8.278,0,0,0,12.879,3.438c.11-.094,2.776-2.748,4.8-4.765a3.192,3.192,0,0,0,0-4.52L13.651,4.139,9.526,0,0,9.525l1.533,1.533a18.163,18.163,0,0,1,3.984,6.011Zm0,0" transform="translate(71.398 59.38)"/><path class="g" d="M17.5,12.334,6.264,1.1,5.165,0l8.248,8.249a3.192,3.192,0,0,1,0,4.52c-2.024,2.012-4.7,4.671-4.8,4.765A7.961,7.961,0,0,1,0,18.576a8.258,8.258,0,0,0,12.7,3.045c.11-.094,2.775-2.747,4.8-4.765a3.193,3.193,0,0,0,0-4.522Zm0,0" transform="translate(78.794 62.418)"/></g></g></svg>