<svg xmlns="http://www.w3.org/2000/svg" width="29.989" height="24.368" viewBox="0 0 29.989 24.368"><defs><style>.a{fill:#fff;}</style></defs><path class="a" d="M84.431,122.818c11.317,0,17.506-9.376,17.506-17.506,0-.266,0-.531-.018-.8a12.518,12.518,0,0,0,3.07-3.185,12.281,12.281,0,0,1-3.534.968,6.174,6.174,0,0,0,2.7-3.4,12.33,12.33,0,0,1-3.907,1.493A6.159,6.159,0,0,0,89.768,106a17.468,17.468,0,0,1-12.68-6.428,6.157,6.157,0,0,0,1.9,8.213,6.107,6.107,0,0,1-2.793-.77v.078a6.155,6.155,0,0,0,4.936,6.031,6.144,6.144,0,0,1-2.778.106,6.16,6.16,0,0,0,5.748,4.273,12.346,12.346,0,0,1-7.641,2.639A12.527,12.527,0,0,1,75,120.054a17.419,17.419,0,0,0,9.431,2.759" transform="translate(-75 -98.45)"/></svg>